<?xml version="1.0" encoding="UTF-8"?>
<svg id="Layer_1" data-name="Layer 1" xmlns="http://www.w3.org/2000/svg" viewBox="0 0 306 344.35">
  <defs>
    <style>
      .cls-1 {
        fill: #fff;
        stroke-width: 0px;
      }
    </style>
  </defs>
  <path class="cls-1" d="M302.11,86.09c-2.4-4.16-5.72-7.8-9.36-9.9L166.25,3.16c-7.29-4.21-19.21-4.21-26.5,0L13.25,76.19c-7.29,4.21-13.25,14.53-13.25,22.95v146.07c0,4.21,1.49,8.89,3.89,13.05,2.4,4.16,5.72,7.8,9.36,9.9l126.5,73.03c7.29,4.21,19.21,4.21,26.5,0l126.5-73.03c3.64-2.11,6.96-5.74,9.36-9.9,2.4-4.16,3.89-8.84,3.89-13.05V99.14c0-4.21-1.49-8.89-3.89-13.05ZM153,274.17c-56.24,0-102-45.76-102-102s45.76-102,102-102c36.29,0,70.14,19.53,88.33,50.97l-44.14,25.54c-9.1-15.74-26.04-25.51-44.19-25.51-28.12,0-51,22.88-51,51s22.88,51,51,51c18.15,0,35.09-9.78,44.19-25.51l44.14,25.54c-18.19,31.44-52.04,50.97-88.33,50.97ZM255,177.84h-11.33v11.33h-11.33v-11.33h-11.33v-11.33h11.33v-11.33h11.33v11.33h11.33v11.33ZM297.5,177.84h-11.33v11.33h-11.33v-11.33h-11.33v-11.33h11.33v-11.33h11.33v11.33h11.33v11.33Z"/>
</svg>